# xmcd CD database file
#
# Track frame offsets:
#	150
#	21158
#	36521
#
# Disc length: 765 seconds
#
# Revision: 2
# Processed by: cddbd v1.5.2PL0 Copyright (c) Steve Scherf et al.
# Submitted via: CDex 1.70beta2
#
DISCID=2002fb03
DTITLE=Makihiko Araki - Get Back Real Yourself
DYEAR=2010
DGENRE=J-Pop
TTITLE0=Nothing here what gets me pain
TTITLE1=Get Back Real Yourself
TTITLE2=Nothing here what gets me pain -Auto tune Version-
EXTD=YEAR: 2010
EXTT0=
EXTT1=
EXTT2=
PLAYORDER=
